HIERARCHY
ROOT Hips
{
  OFFSET 5.80788e-005 67.184 3.4734
  CHANNELS 6 Xposition Yposition Zposition Zrotation Xrotation Yrotation
  JOINT Chest
  {
    OFFSET 0 8.7983 -4.7612
    CHANNELS 6 Xposition Yposition Zposition Zrotation Xrotation Yrotation
    JOINT Chest2
    {
      OFFSET 0 8.0291 0.4195
      CHANNELS 6 Xposition Yposition Zposition Zrotation Xrotation Yrotation
      JOINT Chest3
      {
        OFFSET 0 9.9351 -2.2114
        CHANNELS 6 Xposition Yposition Zposition Zrotation Xrotation Yrotation
        JOINT Neck
        {
          OFFSET 0 22.3885 -0.4656
          CHANNELS 6 Xposition Yposition Zposition Zrotation Xrotation Yrotation
          JOINT Head
          {
            OFFSET -0.0001 12.643 3.4389
            CHANNELS 6 Xposition Yposition Zposition Zrotation Xrotation Yrotation
            End Site
            {
              OFFSET 0.0001 17.6655 0.5274
            }
          }
        }
        JOINT LeftCollar
        {
          OFFSET 2.2603 21.606 7.4023
          CHANNELS 6 Xposition Yposition Zposition Zrotation Xrotation Yrotation
          JOINT LeftShoulder
          {
            OFFSET 13.5163 -1.1332 -5.0146
            CHANNELS 6 Xposition Yposition Zposition Zrotation Xrotation Yrotation
            JOINT LeftElbow
            {
              OFFSET -0.0995 -28.05 -0.2431
              CHANNELS 6 Xposition Yposition Zposition Zrotation Xrotation Yrotation
              JOINT LeftWrist
              {
                OFFSET 0.0679 -23.3996 -0.1402
                CHANNELS 6 Xposition Yposition Zposition Zrotation Xrotation Yrotation
                JOINT LeftFinger1
                {
                  OFFSET 0.7932 -9.069 2.5189
                  CHANNELS 6 Xposition Yposition Zposition Zrotation Xrotation Yrotation
                  JOINT LeftFinger11
                  {
                    OFFSET -0.8272 -3.3923 0.5977
                    CHANNELS 6 Xposition Yposition Zposition Zrotation Xrotation Yrotation
                    JOINT LeftFinger12
                    {
                      OFFSET -0.5649 -2.3158 0.4082
                      CHANNELS 6 Xposition Yposition Zposition Zrotation Xrotation Yrotation
                      End Site
                      {
                        OFFSET -0.4919 -1.6479 0.2673
                      }
                    }
                  }
                }
                JOINT LeftFinger2
                {
                  OFFSET 0.9159 -9.2044 0.2193
                  CHANNELS 6 Xposition Yposition Zposition Zrotation Xrotation Yrotation
                  JOINT LeftFinger21
                  {
                    OFFSET 0.0117 -4.1944 -0.0248
                    CHANNELS 6 Xposition Yposition Zposition Zrotation Xrotation Yrotation
                    JOINT LeftFinger22
                    {
                      OFFSET 0.0071 -2.3249 -0.0142
                      CHANNELS 6 Xposition Yposition Zposition Zrotation Xrotation Yrotation
                      End Site
                      {
                        OFFSET -0.1475 -2.0882 0.0028
                      }
                    }
                  }
                }
                JOINT LeftFinger3
                {
                  OFFSET 0.6113 -8.7231 -2.0637
                  CHANNELS 6 Xposition Yposition Zposition Zrotation Xrotation Yrotation
                  JOINT LeftFinger31
                  {
                    OFFSET -0.1927 -3.8059 -0.2383
                    CHANNELS 6 Xposition Yposition Zposition Zrotation Xrotation Yrotation
                    JOINT LeftFinger32
                    {
                      OFFSET -0.1091 -2.1688 -0.1362
                      CHANNELS 6 Xposition Yposition Zposition Zrotation Xrotation Yrotation
                      End Site
                      {
                        OFFSET -0.2358 -1.9176 -0.0906
                      }
                    }
                  }
                }
                JOINT LeftFinger4
                {
                  OFFSET -0.6151 -8.0947 -3.5641
                  CHANNELS 6 Xposition Yposition Zposition Zrotation Xrotation Yrotation
                  JOINT LeftFinger41
                  {
                    OFFSET -0.4882 -2.341 -0.6462
                    CHANNELS 6 Xposition Yposition Zposition Zrotation Xrotation Yrotation
                    JOINT LeftFinger42
                    {
                      OFFSET -0.3575 -1.7167 -0.4742
                      CHANNELS 6 Xposition Yposition Zposition Zrotation Xrotation Yrotation
                      End Site
                      {
                        OFFSET -0.4187 -1.5237 -0.3496
                      }
                    }
                  }
                }
                JOINT LeftFinger0
                {
                  OFFSET -1.42 -1.8761 1.4223
                  CHANNELS 6 Xposition Yposition Zposition Zrotation Xrotation Yrotation
                  JOINT LeftFinger01
                  {
                    OFFSET -1.1471 -3.4929 2.6334
                    CHANNELS 6 Xposition Yposition Zposition Zrotation Xrotation Yrotation
                    JOINT LeftFinger02
                    {
                      OFFSET -0.823 -2.3 1.6571
                      CHANNELS 6 Xposition Yposition Zposition Zrotation Xrotation Yrotation
                      End Site
                      {
                        OFFSET -0.5822 -1.6914 1.1582
                      }
                    }
                  }
                }
              }
            }
          }
        }
        JOINT RightCollar
        {
          OFFSET -2.2603 21.606 7.4023
          CHANNELS 6 Xposition Yposition Zposition Zrotation Xrotation Yrotation
          JOINT RightShoulder
          {
            OFFSET -13.5187 -1.1334 -5.0155
            CHANNELS 6 Xposition Yposition Zposition Zrotation Xrotation Yrotation
            JOINT RightElbow
            {
              OFFSET 0.0994 -28.0499 -0.2431
              CHANNELS 6 Xposition Yposition Zposition Zrotation Xrotation Yrotation
              JOINT RightWrist
              {
                OFFSET -0.0679 -23.3996 -0.1402
                CHANNELS 6 Xposition Yposition Zposition Zrotation Xrotation Yrotation
                JOINT RightFinger1
                {
                  OFFSET -0.7932 -9.0691 2.5189
                  CHANNELS 6 Xposition Yposition Zposition Zrotation Xrotation Yrotation
                  JOINT RightFinger11
                  {
                    OFFSET 0.8272 -3.3923 0.5977
                    CHANNELS 6 Xposition Yposition Zposition Zrotation Xrotation Yrotation
                    JOINT RightFinger12
                    {
                      OFFSET 0.565 -2.3158 0.4082
                      CHANNELS 6 Xposition Yposition Zposition Zrotation Xrotation Yrotation
                      End Site
                      {
                        OFFSET 0.4919 -1.6479 0.2673
                      }
                    }
                  }
                }
                JOINT RightFinger2
                {
                  OFFSET -0.916 -9.2044 0.2193
                  CHANNELS 6 Xposition Yposition Zposition Zrotation Xrotation Yrotation
                  JOINT RightFinger21
                  {
                    OFFSET -0.0117 -4.1944 -0.0248
                    CHANNELS 6 Xposition Yposition Zposition Zrotation Xrotation Yrotation
                    JOINT RightFinger22
                    {
                      OFFSET -0.0071 -2.3249 -0.0142
                      CHANNELS 6 Xposition Yposition Zposition Zrotation Xrotation Yrotation
                      End Site
                      {
                        OFFSET 0.1475 -2.0882 0.0028
                      }
                    }
                  }
                }
                JOINT RightFinger3
                {
                  OFFSET -0.6113 -8.7231 -2.0637
                  CHANNELS 6 Xposition Yposition Zposition Zrotation Xrotation Yrotation
                  JOINT RightFinger31
                  {
                    OFFSET 0.1927 -3.8059 -0.2383
                    CHANNELS 6 Xposition Yposition Zposition Zrotation Xrotation Yrotation
                    JOINT RightFinger32
                    {
                      OFFSET 0.1091 -2.1688 -0.1362
                      CHANNELS 6 Xposition Yposition Zposition Zrotation Xrotation Yrotation
                      End Site
                      {
                        OFFSET 0.2358 -1.9176 -0.0906
                      }
                    }
                  }
                }
                JOINT RightFinger4
                {
                  OFFSET 0.6151 -8.0947 -3.564
                  CHANNELS 6 Xposition Yposition Zposition Zrotation Xrotation Yrotation
                  JOINT RightFinger41
                  {
                    OFFSET 0.4882 -2.341 -0.6462
                    CHANNELS 6 Xposition Yposition Zposition Zrotation Xrotation Yrotation
                    JOINT RightFinger42
                    {
                      OFFSET 0.3574 -1.7166 -0.4742
                      CHANNELS 6 Xposition Yposition Zposition Zrotation Xrotation Yrotation
                      End Site
                      {
                        OFFSET 0.4187 -1.5237 -0.3496
                      }
                    }
                  }
                }
                JOINT RightFinger0
                {
                  OFFSET 1.4199 -1.8761 1.4221
                  CHANNELS 6 Xposition Yposition Zposition Zrotation Xrotation Yrotation
                  JOINT RightFinger01
                  {
                    OFFSET 1.1472 -3.4929 2.6336
                    CHANNELS 6 Xposition Yposition Zposition Zrotation Xrotation Yrotation
                    JOINT RightFinger02
                    {
                      OFFSET 0.8229 -2.3 1.6571
                      CHANNELS 6 Xposition Yposition Zposition Zrotation Xrotation Yrotation
                      End Site
                      {
                        OFFSET 0.5822 -1.6914 1.1582
                      }
                    }
                  }
                }
              }
            }
          }
        }
      }
    }
  }
  JOINT RightHip
  {
    OFFSET -9.412 3.9771 -0.7758
    CHANNELS 6 Xposition Yposition Zposition Zrotation Xrotation Yrotation
    JOINT RightKnee
    {
      OFFSET -0.7531 -40.938 0
      CHANNELS 6 Xposition Yposition Zposition Zrotation Xrotation Yrotation
      JOINT RightAnkle
      {
        OFFSET 0 -40.1986 0
        CHANNELS 6 Xposition Yposition Zposition Zrotation Xrotation Yrotation
        JOINT RightToe
        {
          OFFSET 0 -4.4182 9.239
          CHANNELS 6 Xposition Yposition Zposition Zrotation Xrotation Yrotation
          End Site
          {
            OFFSET 0 0 6.1981
          }
        }
      }
    }
  }
  JOINT LeftHip
  {
    OFFSET 9.4119 3.9773 -0.7758
    CHANNELS 6 Xposition Yposition Zposition Zrotation Xrotation Yrotation
    JOINT LeftKnee
    {
      OFFSET 0.7532 -40.9383 0
      CHANNELS 6 Xposition Yposition Zposition Zrotation Xrotation Yrotation
      JOINT LeftAnkle
      {
        OFFSET 0 -40.1986 0
        CHANNELS 6 Xposition Yposition Zposition Zrotation Xrotation Yrotation
        JOINT LeftToe
        {
          OFFSET 0 -4.4182 9.239
          CHANNELS 6 Xposition Yposition Zposition Zrotation Xrotation Yrotation
          End Site
          {
            OFFSET 0 0 6.1981
          }
        }
      }
    }
  }
}
MOTION
Frames:	4
Frame Time:	0.0333333
0.999411 18.8506 4.30855 5.64483e-008 -22.1265 1.49868e-007 -1.11022e-016 8.7983 -4.7612 -0.956775 18.2223 0.218426 1.11022e-016 8.0291 0.4195 -2.17135 36.4376 0.84817 0 9.9351 -2.2114 -2.17132 36.4374 0.848157 -6.66134e-016 22.3885 -0.4656 -15.5806 -10.7711 -17.1789 -0.0001 12.643 3.4389 8.21759e-007 -37.6702 -1.05121e-006 2.2603 21.606 7.4023 -12.851 -15.3597 -32.9589 13.5163 -1.1332 -5.0146 81.0933 -34.1551 -22.3646 -0.0995 -28.05 -0.2431 35.4405 -33.2969 19.6655 0.0679 -23.3996 -0.1402 34.5476 -20.1761 -0.806535 0.7932 -9.069 2.5189 -7.95139e-016 0 2.18663e-015 -0.8272 -3.3923 0.5977 -1.19271e-015 -6.36111e-015 1.78906e-015 -0.5649 -2.3158 0.4082 -2.74371e-006 -9.41846e-006 -4.98498e-006 0.9159 -9.2044 0.2193 -7.95139e-016 0 2.18663e-015 0.0117 -4.1944 -0.0248 -0.0128196 0.00232372 8.70802e-005 0.0071 -2.3249 -0.0142 1.1726e-007 -7.71285e-006 -7.36492e-006 0.6113 -8.7231 -2.0637 -7.95139e-016 0 2.18663e-015 -0.1927 -3.8059 -0.2383 -0.0160459 0.00296839 0.000855186 -0.1091 -2.1688 -0.1362 -1.53594e-006 -1.26206e-006 7.38672e-007 -0.6151 -8.0947 -3.5641 -7.95139e-016 0 2.18663e-015 -0.4882 -2.341 -0.6462 -0.0126042 0.00310983 0.00282497 -0.3575 -1.7167 -0.4742 -4.39787e-006 -1.42103e-006 3.11861e-006 -1.42 -1.8761 1.4223 -7.95139e-016 0 2.18663e-015 -1.1471 -3.4929 2.6334 -1.19271e-015 -6.36111e-015 1.78906e-015 -0.823 -2.3 1.6571 -2.74371e-006 -9.41846e-006 -4.98498e-006 -2.2603 21.606 7.4023 11.8101 -15.6833 28.8357 -13.5187 -1.1334 -5.0155 -81.6451 -38.7866 22.0858 0.0994 -28.0499 -0.2431 -34.0839 -31.6969 -20.0461 -0.0679 -23.3996 -0.1402 -35.501 -21.1582 -1.1141 -0.7932 -9.0691 2.5189 0 0 -1.19271e-015 0.8272 -3.3923 0.5977 1.19271e-015 0 -3.97569e-016 0.565 -2.3158 0.4082 3.97569e-016 -3.18055e-015 -0 -0.916 -9.2044 0.2193 0 0 -1.19271e-015 -0.0117 -4.1944 -0.0248 0.012966 0.00232341 -8.82176e-005 -0.0071 -2.3249 -0.0142 1.59028e-015 -6.36111e-015 3.97569e-016 -0.6113 -8.7231 -2.0637 0 0 -1.19271e-015 0.1927 -3.8059 -0.2383 0.0163311 0.00304131 -0.000870257 0.1091 -2.1688 -0.1362 2.97002e-006 -3.02844e-006 -1.67177e-006 0.6151 -8.0947 -3.564 0 0 -1.19271e-015 0.4882 -2.341 -0.6462 0.0145807 0.00367777 -0.00325462 0.3574 -1.7166 -0.4742 2.97005e-006 1.60875e-006 -1.67173e-006 1.4199 -1.8761 1.4221 0 0 -1.19271e-015 1.1472 -3.4929 2.6336 1.19271e-015 0 -3.97569e-016 0.8229 -2.3 1.6571 3.97569e-016 -3.18055e-015 -0 -9.412 3.9771 -0.7758 -76.9969 -44.0713 -87.8067 -0.7531 -40.938 0 -166.27 68.8233 165.711 0 -40.1986 0 -2.99495 -18.9947 1.30568 0 -4.4182 9.239 -1.83154e-008 -9.46929e-007 2.61933e-006 9.4119 3.9773 -0.7758 76.9853 -44.1832 87.7125 0.7532 -40.9383 0 166.369 68.8368 -165.805 0 -40.1986 -7.10543e-015 2.91247 -18.9769 -1.26678 -3.55271e-015 -4.4182 9.239 1.64647e-006 -3.49447e-007 -1.6869e-007 
0.99941 18.9365 4.28392 -8.01539e-009 -21.8761 1.87022e-008 0 8.7983 -4.7612 -0.956775 18.2224 0.218426 -1.11022e-016 8.0291 0.4195 -2.17135 36.4376 0.848171 -5.55112e-017 9.9351 -2.2114 -2.17132 36.4374 0.848157 -4.44089e-016 22.3885 -0.4656 -15.505 -10.5288 -17.0639 -0.0001 12.643 3.4389 -6.13671e-006 -37.5463 7.53949e-007 2.2603 21.606 7.4023 -12.8338 -15.4743 -32.7664 13.5163 -1.1332 -5.0146 81.0933 -34.1552 -22.3646 -0.0995 -28.05 -0.2431 35.7275 -33.5184 19.8234 0.0679 -23.3996 -0.1402 34.6153 -20.0686 -0.904086 0.7932 -9.069 2.5189 1.53653e-006 1.36683e-006 -7.37871e-007 -0.8272 -3.3923 0.5977 3.97569e-016 3.18055e-015 -1.19271e-015 -0.5649 -2.3158 0.4082 -7.95139e-016 3.18055e-015 -1.98785e-015 0.9159 -9.2044 0.2193 1.53653e-006 1.36683e-006 -7.37871e-007 0.0117 -4.1944 -0.0248 -0.0128085 0.00233019 8.335e-005 0.0071 -2.3249 -0.0142 -3.97569e-016 -3.18055e-015 -2.98177e-015 0.6113 -8.7231 -2.0637 1.53653e-006 1.36683e-006 -7.37871e-007 -0.1927 -3.8059 -0.2383 -0.016045 0.00298411 0.000855509 -0.1091 -2.1688 -0.1362 4.6346e-031 6.36111e-015 -4.17448e-015 -0.6151 -8.0947 -3.5641 1.53653e-006 1.36683e-006 -7.37871e-007 -0.4882 -2.341 -0.6462 -0.0125928 0.00311568 0.00283195 -0.3575 -1.7167 -0.4742 -2.38542e-015 3.18055e-015 -0 -1.42 -1.8761 1.4223 1.53653e-006 1.36683e-006 -7.37871e-007 -1.1471 -3.4929 2.6334 3.97569e-016 3.18055e-015 -1.19271e-015 -0.823 -2.3 1.6571 -7.95139e-016 3.18055e-015 -1.98785e-015 -2.2603 21.606 7.4023 11.7954 -15.789 28.5852 -13.5187 -1.1334 -5.0155 -81.6451 -38.7866 22.0858 0.0994 -28.0499 -0.2431 -34.4216 -31.9526 -20.234 -0.0679 -23.3996 -0.1402 -35.5463 -21.0065 -0.987439 -0.7932 -9.0691 2.5189 7.98217e-006 3.46081e-007 4.48166e-006 0.8272 -3.3923 0.5977 1.19271e-015 0 -1.98785e-016 0.565 -2.3158 0.4082 1.59028e-015 0 -1.78906e-015 -0.916 -9.2044 0.2193 7.98217e-006 3.46081e-007 4.48166e-006 -0.0117 -4.1944 -0.0248 0.0129551 0.00230931 -8.14368e-005 -0.0071 -2.3249 -0.0142 -9.41926e-006 2.55988e-006 -5.70046e-006 -0.6113 -8.7231 -2.0637 7.98217e-006 3.46081e-007 4.48166e-006 0.1927 -3.8059 -0.2383 0.0163295 0.00303688 -0.000874881 0.1091 -2.1688 -0.1362 1.59028e-015 3.18055e-015 9.93923e-016 0.6151 -8.0947 -3.564 7.98217e-006 3.46081e-007 4.48166e-006 0.4882 -2.341 -0.6462 0.014584 0.00368175 -0.00326951 0.3574 -1.7166 -0.4742 -6.62086e-032 3.18055e-015 1.19271e-015 1.4199 -1.8761 1.4221 7.98217e-006 3.46081e-007 4.48166e-006 1.1472 -3.4929 2.6336 1.19271e-015 0 -1.98785e-016 0.8229 -2.3 1.6571 1.59028e-015 0 -1.78906e-015 -9.412 3.9771 -0.7758 -77.0249 -44.1852 -87.8972 -0.7531 -40.938 -3.55271e-015 -166.22 68.9522 165.67 0 -40.1986 -7.10543e-015 -2.89952 -19.0044 1.26275 3.55271e-015 -4.4182 9.239 3.29329e-006 1.80252e-006 -3.37074e-007 9.4119 3.9773 -0.7758 77.0139 -44.2968 87.8035 0.7532 -40.9383 -3.55271e-015 166.32 68.9657 -165.765 3.55271e-015 -40.1986 0 2.81758 -18.9868 -1.22364 0 -4.4182 9.239 -1.62903e-006 4.07229e-008 -2.45203e-006 
0.999408 19.0225 4.25917 5.37515e-008 -21.6257 -1.22594e-007 -1.11022e-016 8.7983 -4.7612 -0.956775 18.2224 0.218426 0 8.0291 0.4195 -2.17135 36.4376 0.848171 3.33067e-016 9.9351 -2.2114 -2.17132 36.4374 0.848157 -2.22045e-016 22.3885 -0.4656 -15.4299 -10.2862 -16.9491 -0.0001 12.643 3.4389 7.23175e-006 -37.4224 3.21946e-006 2.2603 21.606 7.4023 -12.8158 -15.5889 -32.5737 13.5163 -1.1332 -5.0146 81.0933 -34.1552 -22.3646 -0.0995 -28.05 -0.2431 36.016 -33.7393 19.983 0.0679 -23.3996 -0.1402 34.6832 -19.9612 -1.00173 0.7932 -9.06901 2.5189 -2.80274e-007 2.74108e-006 2.79562e-006 -0.8272 -3.3923 0.5977 -1.98785e-015 0 -1.39149e-015 -0.5649 -2.3158 0.4082 -1.59028e-015 0 3.77691e-015 0.9159 -9.20441 0.2193 -2.80274e-007 2.74108e-006 2.79562e-006 0.0117 -4.1944 -0.0248 -0.0128235 0.00233447 8.74607e-005 0.0071 -2.3249 -0.0142 -3.97569e-016 3.18055e-015 -2.5842e-015 0.6113 -8.72311 -2.0637 -2.80274e-007 2.74108e-006 2.79562e-006 -0.1927 -3.8059 -0.2383 -0.0160569 0.00300409 0.000855327 -0.1091 -2.1688 -0.1362 3.18055e-015 -3.18055e-015 4.77083e-015 -0.6151 -8.09471 -3.5641 -2.80274e-007 2.74108e-006 2.79562e-006 -0.4882 -2.341 -0.6462 -0.0125993 0.00313531 0.00282559 -0.3575 -1.7167 -0.4742 1.19271e-015 -6.36111e-015 -1.98785e-016 -1.42 -1.8761 1.4223 -2.80274e-007 2.74108e-006 2.79562e-006 -1.1471 -3.4929 2.6334 -1.98785e-015 0 -1.39149e-015 -0.823 -2.3 1.6571 -1.59028e-015 0 3.77691e-015 -2.2603 21.606 7.4023 11.7803 -15.8946 28.3346 -13.5187 -1.1334 -5.0155 -81.6451 -38.7866 22.0858 0.0994 -28.0499 -0.2431 -34.7612 -32.2073 -20.4242 -0.0679 -23.3996 -0.1402 -35.5918 -20.8549 -0.860753 -0.7932 -9.06911 2.5189 3.97569e-016 -3.18055e-015 -2.5842e-015 0.8272 -3.3923 0.5977 3.97569e-016 -3.18055e-015 1.98785e-016 0.565 -2.3158 0.4082 -0 -3.18055e-015 -0 -0.916 -9.20441 0.2193 3.97569e-016 -3.18055e-015 -2.5842e-015 -0.0117 -4.1944 -0.0248 0.0129501 0.00232266 -8.61021e-005 -0.0071 -2.3249 -0.0142 -1.10348e-031 -6.36111e-015 -9.93923e-016 -0.6113 -8.7231 -2.0637 3.97569e-016 -3.18055e-015 -2.5842e-015 0.1927 -3.8059 -0.2383 0.0163283 0.00302927 -0.000872263 0.1091 -2.1688 -0.1362 -1.19271e-015 -3.18055e-015 -1.19271e-015 0.6151 -8.0947 -3.564 3.97569e-016 -3.18055e-015 -2.5842e-015 0.4882 -2.341 -0.6462 0.0145642 0.00366928 -0.00325947 0.3574 -1.7166 -0.4742 -1.19271e-015 0 -0 1.4199 -1.8761 1.4221 3.97569e-016 -3.18055e-015 -2.5842e-015 1.1472 -3.4929 2.6336 3.97569e-016 -3.18055e-015 1.98785e-016 0.8229 -2.3 1.6571 -0 -3.18055e-015 -0 -9.412 3.9771 -0.7758 -77.0535 -44.2988 -87.9882 -0.7531 -40.938 0 -166.169 69.0809 165.628 0 -40.1986 0 -2.8041 -19.0141 1.21983 0 -4.4182 9.239 2.48827e-006 -1.00769e-006 -2.87218e-006 9.4119 3.9773 -0.7758 77.043 -44.4103 87.8948 0.7532 -40.9383 0 166.269 69.0944 -165.724 0 -40.1986 0 2.72268 -18.9968 -1.18054 0 -4.4182 9.239 3.28929e-006 -4.36583e-006 8.54118e-006 
0.999404 19.1087 4.23431 4.05229e-007 -21.3754 8.08244e-009 1.11022e-016 8.7983 -4.7612 -0.956774 18.2224 0.218426 -1.11022e-016 8.0291 0.4195 -2.17135 36.4376 0.848171 -2.77556e-016 9.9351 -2.2114 -2.17132 36.4374 0.848157 2.22045e-016 22.3885 -0.4656 -15.3553 -10.0433 -16.8348 -0.0001 12.643 3.4389 -2.29492e-006 -37.2983 2.79943e-006 2.2603 21.606 7.4023 -12.7971 -15.7034 -32.3809 13.5163 -1.1332 -5.0146 81.0933 -34.1552 -22.3646 -0.0995 -28.05 -0.2431 36.306 -33.9595 20.1443 0.0679 -23.3996 -0.1402 34.7512 -19.8539 -1.0994 0.7932 -9.069 2.5189 -0 0 1.39149e-015 -0.8272 -3.3923 0.5977 6.8665e-008 -3.04021e-006 -3.68791e-006 -0.5649 -2.3158 0.4082 -4.0419e-006 -1.1148e-005 -3.39832e-006 0.9159 -9.2044 0.2193 -0 0 1.39149e-015 0.0117 -4.1944 -0.0248 -0.0128112 0.00232341 8.62985e-005 0.0071 -2.3249 -0.0142 -8.58808e-006 -4.90903e-006 -4.87804e-006 0.6113 -8.7231 -2.0637 -0 0 1.39149e-015 -0.1927 -3.8059 -0.2383 -0.0160485 0.0029916 0.000854976 -0.1091 -2.1688 -0.1362 -2.93822e-006 -1.0652e-005 -5.9036e-006 -0.6151 -8.0947 -3.5641 -0 0 1.39149e-015 -0.4882 -2.341 -0.6462 -0.012592 0.00312144 0.00282148 -0.3575 -1.7167 -0.4742 -4.61309e-006 -3.20183e-006 2.20825e-006 -1.42 -1.8761 1.4223 -0 0 1.39149e-015 -1.1471 -3.4929 2.6334 6.8665e-008 -3.04021e-006 -3.68791e-006 -0.823 -2.3 1.6571 -4.0419e-006 -1.1148e-005 -3.39832e-006 -2.2603 21.606 7.4023 11.7646 -16.0002 28.0838 -13.5187 -1.1334 -5.0155 -81.6451 -38.7866 22.0858 0.0994 -28.0499 -0.2431 -35.1027 -32.4611 -20.6166 -0.0679 -23.3996 -0.1402 -35.6378 -20.7034 -0.734144 -0.7932 -9.0691 2.5189 -1.59028e-015 -6.36111e-015 7.95139e-016 0.8272 -3.3923 0.5977 -7.95139e-016 -6.36111e-015 5.96354e-016 0.565 -2.3158 0.4082 -1.19271e-015 0 5.96354e-016 -0.916 -9.2044 0.2193 -1.59028e-015 -6.36111e-015 7.95139e-016 -0.0117 -4.1944 -0.0248 0.0129636 0.00231774 -7.8569e-005 -0.0071 -2.3249 -0.0142 -3.97569e-016 -3.18055e-015 -2.18663e-015 -0.6113 -8.7231 -2.0637 -1.59028e-015 -6.36111e-015 7.95139e-016 0.1927 -3.8059 -0.2383 0.0163332 0.00304006 -0.000866808 0.1091 -2.1688 -0.1362 1.19271e-015 -3.18055e-015 -3.97569e-016 0.6151 -8.0947 -3.564 -1.59028e-015 -6.36111e-015 7.95139e-016 0.4882 -2.341 -0.6462 0.0145834 0.00367117 -0.00326062 0.3574 -1.7166 -0.4742 -3.97569e-016 3.18055e-015 1.19271e-015 1.4199 -1.8761 1.4221 -1.59028e-015 -6.36111e-015 7.95139e-016 1.1472 -3.4929 2.6336 -7.95139e-016 -6.36111e-015 5.96354e-016 0.8229 -2.3 1.6571 -1.19271e-015 0 5.96354e-016 -9.412 3.9771 -0.7758 -77.0829 -44.4122 -88.0798 -0.7531 -40.938 -7.10543e-015 -166.117 69.2095 165.586 0 -40.1986 0 -2.70867 -19.0238 1.17693 -3.55271e-015 -4.4182 9.239 -1.62833e-006 -3.99774e-007 -2.45096e-006 9.4119 3.9773 -0.7758 77.0719 -44.5241 87.986 0.7532 -40.9383 -3.55271e-015 166.219 69.2234 -165.682 0 -40.1986 7.10543e-015 2.62779 -19.0069 -1.13738 0 -4.4182 9.239 -2.45226e-006 1.07701e-006 -2.36782e-006 
